<?xml version="1.0" encoding="UTF-8" standalone="no"?>
<svg
   xmlns:dc="http://purl.org/dc/elements/1.1/"
   xmlns:cc="http://creativecommons.org/ns#"
   xmlns:rdf="http://www.w3.org/1999/02/22-rdf-syntax-ns#"
   xmlns:svg="http://www.w3.org/2000/svg"
   xmlns="http://www.w3.org/2000/svg"
   viewBox="0 0 684.08752 473.85001"
   height="473.85001"
   width="684.08752"
   xml:space="preserve"
   version="1.1"
   id="svg2"><metadata
     id="metadata8"><rdf:RDF><cc:Work
         rdf:about=""><dc:format>image/svg+xml</dc:format><dc:type
           rdf:resource="http://purl.org/dc/dcmitype/StillImage" /></cc:Work></rdf:RDF></metadata><defs
     id="defs6" /><g
     transform="matrix(1.25,0,0,-1.25,0,473.85)"
     id="g10"><g
       transform="translate(72,307.084)"
       id="g12"><g
         id="g14"><path
           id="path16"
           style="fill:none;stroke:#000000;stroke-width:0.3985;stroke-linecap:butt;stroke-linejoin:miter;stroke-miterlimit:10;stroke-dasharray:none;stroke-opacity:1"
           d="m -72,70.842 547.274,0" /></g><g
         id="g18"><path
           id="path20"
           style="fill:none;stroke:#000000;stroke-width:0.3985;stroke-linecap:butt;stroke-linejoin:miter;stroke-miterlimit:10;stroke-dasharray:none;stroke-opacity:1"
           d="m -72,68.451 547.274,0" /></g><text
         id="text22"
         style="font-variant:normal;font-size:13.94760036px;font-family:'Minion Pro';-inkscape-font-specification:MinionPro-Subh-Identity-H;writing-mode:lr-tb;fill:#000000;fill-opacity:1;fill-rule:nonzero;stroke:none"
         transform="matrix(1,0,0,-1,188.099,57.306)"><tspan
           id="tspan24"
           y="0"
           x="0 10.11201 16.97423 20.419287 23.878292 29.666546 34.534256 42.261227 48.481857 55.706715 61.439178 68.622192 75.526253 82.29084 91.287041 101.05036 106.9223 119.02882 126.19788 131.16322 137.06306 144.21819 149.95065 154.81836">DollarsSpentbyNewTraders</tspan></text>
<g
         id="g26"><path
           id="path28"
           style="fill:none;stroke:#000000;stroke-width:0.3985;stroke-linecap:butt;stroke-linejoin:miter;stroke-miterlimit:10;stroke-dasharray:none;stroke-opacity:1"
           d="m 60.624,53.439 414.65,0" /></g><text
         id="text30"
         style="font-variant:normal;font-size:13.94760036px;font-family:'Minion Pro';-inkscape-font-specification:MinionPro-Subh-Identity-H;writing-mode:lr-tb;fill:#000000;fill-opacity:1;fill-rule:nonzero;stroke:none"
         transform="matrix(1,0,0,-1,128.792,29.862)"><tspan
           id="tspan32"
           y="0"
           x="0 4.53297 11.074394 144.13901 148.67197 155.21339 275.492 280.02496 286.56641">(1)(2)(3)</tspan></text>
<g
         id="g34"><path
           id="path36"
           style="fill:none;stroke:#000000;stroke-width:0.3985;stroke-linecap:butt;stroke-linejoin:miter;stroke-miterlimit:10;stroke-dasharray:none;stroke-opacity:1"
           d="m -72,26.077 547.274,0" /></g><text
         id="text38"
         style="font-variant:normal;font-size:13.94760036px;font-family:'Minion Pro';-inkscape-font-specification:MinionPro-Subh-Identity-H;writing-mode:lr-tb;fill:#000000;fill-opacity:1;fill-rule:nonzero;stroke:none"
         transform="matrix(1,0,0,-1,-72,14.431)"><tspan
           id="tspan40"
           y="0"
           x="0 9.386735 14.477609 18.620047 22.204578 27.797567 31.172886 36.90535 44.618374">Articles#</tspan></text>
<text
         id="text42"
         style="font-variant:normal;font-size:13.94760036px;font-family:'XITS Math';-inkscape-font-specification:XITSMath-Identity-H;writing-mode:lr-tb;fill:#000000;fill-opacity:1;fill-rule:nonzero;stroke:none"
         transform="matrix(1,0,0,-1,88.941,14.431)"><tspan
           id="tspan44"
           y="0"
           x="0 6.9738002 13.9476 20.9214 26.723602 33.697403 40.6712 47.645 51.131901 58.105701">120,221.40</tspan></text>
<text
         id="text46"
         style="font-variant:normal;font-size:10.42039967px;font-family:'XITS Math';-inkscape-font-specification:XITSMath-Identity-H;writing-mode:lr-tb;fill:#000000;fill-opacity:1;fill-rule:nonzero;stroke:none"
         transform="matrix(1,0,0,-1,154.03,20.01)"><tspan
           id="tspan48"
           y="0"
           x="0 5.4498692 10.899738">∗∗∗</tspan></text>
<text
         id="text50"
         style="font-variant:normal;font-size:13.94760036px;font-family:'XITS Math';-inkscape-font-specification:XITSMath-Identity-H;writing-mode:lr-tb;fill:#000000;fill-opacity:1;fill-rule:nonzero;stroke:none"
         transform="matrix(1,0,0,-1,371.408,14.431)"><tspan
           id="tspan52"
           y="0"
           x="0 6.9738002 13.9476 19.749802 26.723602 33.697403 40.6712 44.1581 51.131901">23,588.80</tspan></text>
<text
         id="text54"
         style="font-variant:normal;font-size:10.42039967px;font-family:'XITS Math';-inkscape-font-specification:XITSMath-Identity-H;writing-mode:lr-tb;fill:#000000;fill-opacity:1;fill-rule:nonzero;stroke:none"
         transform="matrix(1,0,0,-1,429.523,20.01)"><tspan
           id="tspan56"
           y="0"
           x="0">∗</tspan></text>
<text
         id="text58"
         style="font-variant:normal;font-size:13.94760036px;font-family:'XITS Math';-inkscape-font-specification:XITSMath-Identity-H;writing-mode:lr-tb;fill:#000000;fill-opacity:1;fill-rule:nonzero;stroke:none"
         transform="matrix(1,0,0,-1,91.27,1.249)"><tspan
           id="tspan60"
           y="0"
           x="0 4.6445508 11.618351 18.592152 24.394352 31.368153 38.341953 45.315754 48.802654 55.776451 62.750252 275.49301 280.13754 287.11136 294.08514 299.88736 306.86115 313.83496 320.80875 324.29565 331.26944 338.24326">(17,201.03)(12,757.53)</tspan></text>
<text
         id="text62"
         style="font-variant:normal;font-size:13.94760036px;font-family:'Minion Pro';-inkscape-font-specification:MinionPro-Subh-Identity-H;writing-mode:lr-tb;fill:#000000;fill-opacity:1;fill-rule:nonzero;stroke:none"
         transform="matrix(1,0,0,-1,-72,-24.78)"><tspan
           id="tspan64"
           y="0"
           x="0 6.6530051 12.497049 18.285303 23.055384 28.634422 38.676693 43.05624 50.392677 57.547798 63.280262">SearchIndex</tspan></text>
<text
         id="text66"
         style="font-variant:normal;font-size:13.94760036px;font-family:'XITS Math';-inkscape-font-specification:XITSMath-Identity-H;writing-mode:lr-tb;fill:#000000;fill-opacity:1;fill-rule:nonzero;stroke:none"
         transform="matrix(1,0,0,-1,247.028,-24.78)"><tspan
           id="tspan68"
           y="0"
           x="0 6.9738002 12.776002 19.749802 26.723602 33.697403 37.184303 44.1581">6,123.26</tspan></text>
<text
         id="text70"
         style="font-variant:normal;font-size:10.42039967px;font-family:'XITS Math';-inkscape-font-specification:XITSMath-Identity-H;writing-mode:lr-tb;fill:#000000;fill-opacity:1;fill-rule:nonzero;stroke:none"
         transform="matrix(1,0,0,-1,298.169,-19.201)"><tspan
           id="tspan72"
           y="0"
           x="0 5.4498692 10.899738">∗∗∗</tspan></text>
<text
         id="text74"
         style="font-variant:normal;font-size:13.94760036px;font-family:'XITS Math';-inkscape-font-specification:XITSMath-Identity-H;writing-mode:lr-tb;fill:#000000;fill-opacity:1;fill-rule:nonzero;stroke:none"
         transform="matrix(1,0,0,-1,378.381,-24.78)"><tspan
           id="tspan76"
           y="0"
           x="0 6.9738002 12.776002 19.749802 26.723602 33.697403 37.184303 44.1581">5,669.40</tspan></text>
<text
         id="text78"
         style="font-variant:normal;font-size:10.42039967px;font-family:'XITS Math';-inkscape-font-specification:XITSMath-Identity-H;writing-mode:lr-tb;fill:#000000;fill-opacity:1;fill-rule:nonzero;stroke:none"
         transform="matrix(1,0,0,-1,429.523,-19.201)"><tspan
           id="tspan80"
           y="0"
           x="0 5.4498692 10.899738">∗∗∗</tspan></text>
<text
         id="text82"
         style="font-variant:normal;font-size:13.94760036px;font-family:'XITS Math';-inkscape-font-specification:XITSMath-Identity-H;writing-mode:lr-tb;fill:#000000;fill-opacity:1;fill-rule:nonzero;stroke:none"
         transform="matrix(1,0,0,-1,255.169,-37.907)"><tspan
           id="tspan84"
           y="0"
           x="0 4.6445508 11.618351 18.592152 25.56595 29.052851 36.026649 43.00045 131.353 135.99754 142.97134 149.94514 156.91895 160.40585 167.37965 174.35345">(406.94)(324.92)</tspan></text>
<text
         id="text86"
         style="font-variant:normal;font-size:13.94760036px;font-family:'Minion Pro';-inkscape-font-specification:MinionPro-Subh-Identity-H;writing-mode:lr-tb;fill:#000000;fill-opacity:1;fill-rule:nonzero;stroke:none"
         transform="matrix(1,0,0,-1,-72,-63.936)"><tspan
           id="tspan88"
           y="0"
           x="0 10.11201 15.900264 19.554535 22.874063 31.870266 40.001717 46.849987 50.295044 55.929874 60.058365 63.726585 67.101906 70.505119 74.591766">DailyVolatility</tspan></text>
<text
         id="text90"
         style="font-variant:normal;font-size:13.94760036px;font-family:'XITS Math';-inkscape-font-specification:XITSMath-Identity-H;writing-mode:lr-tb;fill:#000000;fill-opacity:1;fill-rule:nonzero;stroke:none"
         transform="matrix(1,0,0,-1,95.915,-63.936)"><tspan
           id="tspan92"
           y="0"
           x="0 6.9738002 13.9476 19.749802 26.723602 33.697403 40.6712 44.1581 51.131901">26,168.93</tspan></text>
<text
         id="text94"
         style="font-variant:normal;font-size:10.42039967px;font-family:'XITS Math';-inkscape-font-specification:XITSMath-Identity-H;writing-mode:lr-tb;fill:#000000;fill-opacity:1;fill-rule:nonzero;stroke:none"
         transform="matrix(1,0,0,-1,154.03,-58.357)"><tspan
           id="tspan96"
           y="0"
           x="0 5.4498692 10.899738">∗∗∗</tspan></text>
<text
         id="text98"
         style="font-variant:normal;font-size:13.94760036px;font-family:'XITS Math';-inkscape-font-specification:XITSMath-Identity-H;writing-mode:lr-tb;fill:#000000;fill-opacity:1;fill-rule:nonzero;stroke:none"
         transform="matrix(1,0,0,-1,247.028,-63.936)"><tspan
           id="tspan100"
           y="0"
           x="0 6.9738002 12.776002 19.749802 26.723602 33.697403 37.184303 44.1581">6,229.98</tspan></text>
<text
         id="text102"
         style="font-variant:normal;font-size:10.42039967px;font-family:'XITS Math';-inkscape-font-specification:XITSMath-Identity-H;writing-mode:lr-tb;fill:#000000;fill-opacity:1;fill-rule:nonzero;stroke:none"
         transform="matrix(1,0,0,-1,298.169,-58.357)"><tspan
           id="tspan104"
           y="0"
           x="0 5.4498692 10.899738">∗∗∗</tspan></text>
<text
         id="text106"
         style="font-variant:normal;font-size:13.94760036px;font-family:'XITS Math';-inkscape-font-specification:XITSMath-Identity-H;writing-mode:lr-tb;fill:#000000;fill-opacity:1;fill-rule:nonzero;stroke:none"
         transform="matrix(1,0,0,-1,378.381,-63.936)"><tspan
           id="tspan108"
           y="0"
           x="0 6.9738002 12.776002 19.749802 26.723602 33.697403 37.184303 44.1581">5,944.01</tspan></text>
<text
         id="text110"
         style="font-variant:normal;font-size:10.42039967px;font-family:'XITS Math';-inkscape-font-specification:XITSMath-Identity-H;writing-mode:lr-tb;fill:#000000;fill-opacity:1;fill-rule:nonzero;stroke:none"
         transform="matrix(1,0,0,-1,429.523,-58.357)"><tspan
           id="tspan112"
           y="0"
           x="0 5.4498692">∗∗</tspan></text>
<text
         id="text114"
         style="font-variant:normal;font-size:13.94760036px;font-family:'XITS Math';-inkscape-font-specification:XITSMath-Identity-H;writing-mode:lr-tb;fill:#000000;fill-opacity:1;fill-rule:nonzero;stroke:none"
         transform="matrix(1,0,0,-1,98.244,-77.2)"><tspan
           id="tspan116"
           y="0"
           x="0 4.6445508 11.618351 17.420553 24.394352 31.368153 38.341953 41.828854 48.802654 55.776451 144.13901 148.78355 155.75735 161.55956 168.53336 175.50716 182.48096 185.96785 192.94165 199.91545 275.49301 280.13754 287.11136 292.91354 299.88736 306.86115 313.83496 317.32184 324.29565 331.26944">(7,455.24)(2,173.35)(2,430.22)</tspan></text>
<text
         id="text118"
         style="font-variant:normal;font-size:13.94760036px;font-family:'Minion Pro';-inkscape-font-specification:MinionPro-Subh-Identity-H;writing-mode:lr-tb;fill:#000000;fill-opacity:1;fill-rule:nonzero;stroke:none"
         transform="matrix(1,0,0,-1,-72,-103.229)"><tspan
           id="tspan120"
           y="0"
           x="0 7.4340706 14.366028 23.459864 31.995794 37.728256 41.67543 48.872391 53.865631">LogReturn</tspan></text>
<text
         id="text122"
         style="font-variant:normal;font-size:13.94760036px;font-family:'XITS Math';-inkscape-font-specification:XITSMath-Identity-H;writing-mode:lr-tb;fill:#000000;fill-opacity:1;fill-rule:nonzero;stroke:none"
         transform="matrix(1,0,0,-1,88.941,-103.229)"><tspan
           id="tspan124"
           y="0"
           x="0 6.9738002 13.9476 20.9214 26.723602 33.697403 40.6712 47.645 51.131901 58.105701">155,276.90</tspan></text>
<text
         id="text126"
         style="font-variant:normal;font-size:10.42039967px;font-family:'XITS Math';-inkscape-font-specification:XITSMath-Identity-H;writing-mode:lr-tb;fill:#000000;fill-opacity:1;fill-rule:nonzero;stroke:none"
         transform="matrix(1,0,0,-1,154.03,-97.65)"><tspan
           id="tspan128"
           y="0"
           x="0">∗</tspan></text>
<text
         id="text130"
         style="font-variant:normal;font-size:13.94760036px;font-family:'XITS Math';-inkscape-font-specification:XITSMath-Identity-H;writing-mode:lr-tb;fill:#000000;fill-opacity:1;fill-rule:nonzero;stroke:none"
         transform="matrix(1,0,0,-1,233.08,-103.229)"><tspan
           id="tspan132"
           y="0"
           x="0 6.9738002 13.9476 20.9214 26.723602 33.697403 40.6712 47.645 51.131901 58.105701">207,131.30</tspan></text>
<text
         id="text134"
         style="font-variant:normal;font-size:10.42039967px;font-family:'XITS Math';-inkscape-font-specification:XITSMath-Identity-H;writing-mode:lr-tb;fill:#000000;fill-opacity:1;fill-rule:nonzero;stroke:none"
         transform="matrix(1,0,0,-1,298.169,-97.65)"><tspan
           id="tspan136"
           y="0"
           x="0 5.4498692">∗∗</tspan></text>
<text
         id="text138"
         style="font-variant:normal;font-size:13.94760036px;font-family:'XITS Math';-inkscape-font-specification:XITSMath-Identity-H;writing-mode:lr-tb;fill:#000000;fill-opacity:1;fill-rule:nonzero;stroke:none"
         transform="matrix(1,0,0,-1,364.434,-103.229)"><tspan
           id="tspan140"
           y="0"
           x="0 6.9738002 13.9476 20.9214 26.723602 33.697403 40.6712 47.645 51.131901 58.105701">202,492.80</tspan></text>
<text
         id="text142"
         style="font-variant:normal;font-size:10.42039967px;font-family:'XITS Math';-inkscape-font-specification:XITSMath-Identity-H;writing-mode:lr-tb;fill:#000000;fill-opacity:1;fill-rule:nonzero;stroke:none"
         transform="matrix(1,0,0,-1,429.523,-97.65)"><tspan
           id="tspan144"
           y="0"
           x="0 5.4498692">∗∗</tspan></text>
<text
         id="text146"
         style="font-variant:normal;font-size:13.94760036px;font-family:'XITS Math';-inkscape-font-specification:XITSMath-Identity-H;writing-mode:lr-tb;fill:#000000;fill-opacity:1;fill-rule:nonzero;stroke:none"
         transform="matrix(1,0,0,-1,91.27,-116.493)"><tspan
           id="tspan148"
           y="0"
           x="0 4.6445508 11.618351 18.592152 24.394352 31.368153 38.341953 45.315754 48.802654 55.776451 62.750252 144.13901 148.78355 155.75735 162.73116 168.53336 175.50716 182.48096 189.45476 192.94165 199.91545 206.88925 275.49301 280.13754 287.11136 294.08514 299.88736 306.86115 313.83496 320.80875 324.29565 331.26944 338.24326">(85,567.47)(97,079.38)(99,490.16)</tspan><tspan
           id="tspan150"
           y="25.528"
           x="-163.27">Δ</tspan></text>
<text
         id="text152"
         style="font-variant:normal;font-size:13.94760036px;font-family:'Minion Pro';-inkscape-font-specification:MinionPro-Subh-Identity-H;writing-mode:lr-tb;fill:#000000;fill-opacity:1;fill-rule:nonzero;stroke:none"
         transform="matrix(1,0,0,-1,-59.098,-142.021)"><tspan
           id="tspan154"
           y="0"
           x="0 7.1551189 12.120464 18.0203 25.175419 28.759951 36.012703 45.09259 53.224041 60.072311 63.252365 70.449326 81.48188">TradingVolume</tspan></text>
<text
         id="text156"
         style="font-variant:normal;font-size:13.94760036px;font-family:'XITS Math';-inkscape-font-specification:XITSMath-Identity-H;writing-mode:lr-tb;fill:#000000;fill-opacity:1;fill-rule:nonzero;stroke:none"
         transform="matrix(1,0,0,-1,93.335,-142.021)"><tspan
           id="tspan158"
           y="0"
           x="0 9.5541058 16.527906 22.330107 29.303907 36.277706 43.251507 46.738407 53.712208 153.69299 160.66679 166.46899 173.44279 180.4166 187.3904 190.8773 197.8511 285.04599 292.01981 297.82199 304.79581 311.76959 318.74341 322.23032 329.2041">−1,896.684,534.894,706.78</tspan><tspan
           id="tspan160"
           y="13.264"
           x="4.9089999 9.5535507 16.527351 22.329552 29.303352 36.277153 43.250954 46.737854 53.711651 60.685452 149.048 153.69255 160.66635 166.46855 173.44235 180.41615 187.38995 190.87685 197.85065 204.82445 280.40201 285.04654 292.02036 297.82254 304.79636 311.77014 318.74396 322.23087 329.20465 336.17847">(1,952.44)(3,268.78)(3,796.37)</tspan><tspan
           id="tspan162"
           y="38.792"
           x="-165.33501">Δ</tspan></text>
<text
         id="text164"
         style="font-variant:normal;font-size:13.94760036px;font-family:'Minion Pro';-inkscape-font-specification:MinionPro-Subh-Identity-H;writing-mode:lr-tb;fill:#000000;fill-opacity:1;fill-rule:nonzero;stroke:none"
         transform="matrix(1,0,0,-1,-59.098,-180.813)"><tspan
           id="tspan166"
           y="0"
           x="0 7.1551189 12.120464 17.894772 25.203314 30.210501 36.110336 41.884644 46.027081 49.611614 56.418041 66.641632 74.773087 81.621353 84.801407 91.998367 103.03092">TransactionVolume</tspan></text>
<text
         id="text168"
         style="font-variant:normal;font-size:13.94760036px;font-family:'XITS Math';-inkscape-font-specification:XITSMath-Identity-H;writing-mode:lr-tb;fill:#000000;fill-opacity:1;fill-rule:nonzero;stroke:none"
         transform="matrix(1,0,0,-1,102.889,-180.813)"><tspan
           id="tspan170"
           y="0"
           x="0 6.9738002 12.776002 19.749802 26.723602 33.697403 37.184303 44.1581 144.13901 151.11279 156.91501 163.88881 170.86259 177.8364 181.3233 188.2971 275.492 282.46579 288.26801 295.24179 302.21561 309.18939 312.6763 319.65012">4,223.391,292.362,483.62</tspan><tspan
           id="tspan172"
           y="13.127"
           x="-4.645 -0.00044919999 6.973351 12.775553 19.749352 26.723152 33.696953 37.183853 44.157654 51.131451 139.494 144.13855 151.11235 156.91455 163.88835 170.86215 177.83595 181.32285 188.29665 195.27045 270.84799 275.49255 282.46634 288.26855 295.24234 302.21616 309.18994 312.67685 319.65067 326.62445">(4,639.22)(2,726.64)(3,000.49)</tspan></text>
<text
         id="text174"
         style="font-variant:normal;font-size:13.94760036px;font-family:'Minion Pro';-inkscape-font-specification:MinionPro-Subh-Identity-H;writing-mode:lr-tb;fill:#000000;fill-opacity:1;fill-rule:nonzero;stroke:none"
         transform="matrix(1,0,0,-1,-72,-219.969)"><tspan
           id="tspan176"
           y="0"
           x="0 8.0896082 11.674141 22.706694 31.256571 38.425636 43.195717 48.928181 56.264618">TimeTrend</tspan></text>
<text
         id="text178"
         style="font-variant:normal;font-size:13.94760036px;font-family:'XITS Math';-inkscape-font-specification:XITSMath-Identity-H;writing-mode:lr-tb;fill:#000000;fill-opacity:1;fill-rule:nonzero;stroke:none"
         transform="matrix(1,0,0,-1,115.674,-219.969)"><tspan
           id="tspan180"
           y="0"
           x="0 6.9738002 13.9476 20.9214 24.4083 31.382099">100.13</tspan></text>
<text
         id="text182"
         style="font-variant:normal;font-size:10.42039967px;font-family:'XITS Math';-inkscape-font-specification:XITSMath-Identity-H;writing-mode:lr-tb;fill:#000000;fill-opacity:1;fill-rule:nonzero;stroke:none"
         transform="matrix(1,0,0,-1,154.03,-214.39)"><tspan
           id="tspan184"
           y="0"
           x="0 5.4498692">∗∗</tspan></text>
<text
         id="text186"
         style="font-variant:normal;font-size:13.94760036px;font-family:'XITS Math';-inkscape-font-specification:XITSMath-Identity-H;writing-mode:lr-tb;fill:#000000;fill-opacity:1;fill-rule:nonzero;stroke:none"
         transform="matrix(1,0,0,-1,266.787,-219.969)"><tspan
           id="tspan188"
           y="0"
           x="0 6.9738002 13.9476 17.4345 24.4083">27.27</tspan></text>
<text
         id="text190"
         style="font-variant:normal;font-size:10.42039967px;font-family:'XITS Math';-inkscape-font-specification:XITSMath-Identity-H;writing-mode:lr-tb;fill:#000000;fill-opacity:1;fill-rule:nonzero;stroke:none"
         transform="matrix(1,0,0,-1,298.169,-214.39)"><tspan
           id="tspan192"
           y="0"
           x="0 5.4498692">∗∗</tspan></text>
<text
         id="text194"
         style="font-variant:normal;font-size:13.94760036px;font-family:'XITS Math';-inkscape-font-specification:XITSMath-Identity-H;writing-mode:lr-tb;fill:#000000;fill-opacity:1;fill-rule:nonzero;stroke:none"
         transform="matrix(1,0,0,-1,398.14,-219.969)"><tspan
           id="tspan196"
           y="0"
           x="0 6.9738002 13.9476 17.4345 24.4083">24.46</tspan></text>
<text
         id="text198"
         style="font-variant:normal;font-size:10.42039967px;font-family:'XITS Math';-inkscape-font-specification:XITSMath-Identity-H;writing-mode:lr-tb;fill:#000000;fill-opacity:1;fill-rule:nonzero;stroke:none"
         transform="matrix(1,0,0,-1,429.523,-214.39)"><tspan
           id="tspan200"
           y="0"
           x="0">∗</tspan></text>
<text
         id="text202"
         style="font-variant:normal;font-size:13.94760036px;font-family:'XITS Math';-inkscape-font-specification:XITSMath-Identity-H;writing-mode:lr-tb;fill:#000000;fill-opacity:1;fill-rule:nonzero;stroke:none"
         transform="matrix(1,0,0,-1,118.003,-233.152)"><tspan
           id="tspan204"
           y="0"
           x="0 4.6445508 11.618351 18.592152 22.07905 29.052851 36.026649 144.13901 148.78355 155.75735 162.73116 166.21805 173.19185 180.16565 275.49301 280.13754 287.11136 294.08514 297.57205 304.54584 311.51965">(42.69)(13.55)(13.30)</tspan></text>
<text
         id="text206"
         style="font-variant:normal;font-size:13.94760036px;font-family:'Minion Pro';-inkscape-font-specification:MinionPro-Subh-Identity-H;writing-mode:lr-tb;fill:#000000;fill-opacity:1;fill-rule:nonzero;stroke:none"
         transform="matrix(1,0,0,-1,-72,-259.18)"><tspan
           id="tspan208"
           y="0"
           x="0 9.3309441 16.137373 23.445915 28.257837 32.414223 38.202477 45.371544">Constant</tspan></text>
<text
         id="text210"
         style="font-variant:normal;font-size:13.94760036px;font-family:'XITS Math';-inkscape-font-specification:XITSMath-Identity-H;writing-mode:lr-tb;fill:#000000;fill-opacity:1;fill-rule:nonzero;stroke:none"
         transform="matrix(1,0,0,-1,66.602,-259.18)"><tspan
           id="tspan212"
           y="0"
           x="0 9.5541058 16.527906 22.330107 29.303907 36.277706 43.251507 49.067657 56.041458 63.015255 69.989059 73.47596 80.44976">−1,556,930.00</tspan></text>
<text
         id="text214"
         style="font-variant:normal;font-size:10.42039967px;font-family:'XITS Math';-inkscape-font-specification:XITSMath-Identity-H;writing-mode:lr-tb;fill:#000000;fill-opacity:1;fill-rule:nonzero;stroke:none"
         transform="matrix(1,0,0,-1,154.03,-253.601)"><tspan
           id="tspan216"
           y="0"
           x="0 5.4498692">∗∗</tspan></text>
<text
         id="text218"
         style="font-variant:normal;font-size:13.94760036px;font-family:'XITS Math';-inkscape-font-specification:XITSMath-Identity-H;writing-mode:lr-tb;fill:#000000;fill-opacity:1;fill-rule:nonzero;stroke:none"
         transform="matrix(1,0,0,-1,223.526,-259.18)"><tspan
           id="tspan220"
           y="0"
           x="0 9.5541058 16.527906 23.501705 30.475506 36.277706 43.251507 50.225307 57.199108 60.686008 67.659805">−436,745.30</tspan></text>
<text
         id="text222"
         style="font-variant:normal;font-size:10.42039967px;font-family:'XITS Math';-inkscape-font-specification:XITSMath-Identity-H;writing-mode:lr-tb;fill:#000000;fill-opacity:1;fill-rule:nonzero;stroke:none"
         transform="matrix(1,0,0,-1,298.169,-253.601)"><tspan
           id="tspan224"
           y="0"
           x="0 5.4498692">∗∗</tspan></text>
<text
         id="text226"
         style="font-variant:normal;font-size:13.94760036px;font-family:'XITS Math';-inkscape-font-specification:XITSMath-Identity-H;writing-mode:lr-tb;fill:#000000;fill-opacity:1;fill-rule:nonzero;stroke:none"
         transform="matrix(1,0,0,-1,354.88,-259.18)"><tspan
           id="tspan228"
           y="0"
           x="0 9.5541058 16.527906 23.501705 30.475506 36.277706 43.251507 50.225307 57.199108 60.686008 67.659805">−392,544.60</tspan></text>
<text
         id="text230"
         style="font-variant:normal;font-size:10.42039967px;font-family:'XITS Math';-inkscape-font-specification:XITSMath-Identity-H;writing-mode:lr-tb;fill:#000000;fill-opacity:1;fill-rule:nonzero;stroke:none"
         transform="matrix(1,0,0,-1,429.523,-253.601)"><tspan
           id="tspan232"
           y="0"
           x="0">∗</tspan></text>
<text
         id="text234"
         style="font-variant:normal;font-size:13.94760036px;font-family:'XITS Math';-inkscape-font-specification:XITSMath-Identity-H;writing-mode:lr-tb;fill:#000000;fill-opacity:1;fill-rule:nonzero;stroke:none"
         transform="matrix(1,0,0,-1,84.297,-272.363)"><tspan
           id="tspan236"
           y="0"
           x="0 4.6445508 11.618351 18.592152 25.56595 31.368153 38.341953 45.315754 52.289551 55.776451 62.750252 69.724052 144.13901 148.78355 155.75735 162.73116 169.70496 175.50716 182.48096 189.45476 196.42856 199.91545 206.88925 213.86305 275.492 280.13654 287.11035 294.08414 301.05795 306.86014 313.83395 320.80774 327.78156 331.26846 338.24225 345.21606">(668,632.40)(210,122.80)(205,689.50)</tspan></text>
<g
         id="g238"><path
           id="path240"
           style="fill:none;stroke:#000000;stroke-width:0.3985;stroke-linecap:butt;stroke-linejoin:miter;stroke-miterlimit:10;stroke-dasharray:none;stroke-opacity:1"
           d="m -72,-288.104 547.274,0" /></g><g
         id="g242"><path
           id="path244"
           style="fill:none;stroke:#000000;stroke-width:0.3985;stroke-linecap:butt;stroke-linejoin:miter;stroke-miterlimit:10;stroke-dasharray:none;stroke-opacity:1"
           d="m -72,-289.461 547.274,0" /></g><g
         id="g246"><path
           id="path248"
           style="fill:none;stroke:#000000;stroke-width:0.3985;stroke-linecap:butt;stroke-linejoin:miter;stroke-miterlimit:10;stroke-dasharray:none;stroke-opacity:1"
           d="m -72,-291.852 547.274,0" /></g><text
         id="text250"
         style="font-style:italic;font-variant:normal;font-size:13.94760036px;font-family:'Minion Pro';-inkscape-font-specification:MinionPro-ItSubh-Identity-H;writing-mode:lr-tb;fill:#000000;fill-opacity:1;fill-rule:nonzero;stroke:none"
         transform="matrix(1,0,0,-1,-72,-303.498)"><tspan
           id="tspan252"
           y="0"
           x="0 9.2333117 15.356308 19.247688 24.547775">Note:</tspan></text>
<text
         id="text254"
         style="font-variant:normal;font-size:10.42039967px;font-family:'XITS Math';-inkscape-font-specification:XITSMath-Identity-H;writing-mode:lr-tb;fill:#000000;fill-opacity:1;fill-rule:nonzero;stroke:none"
         transform="matrix(1,0,0,-1,312.364,-300.134)"><tspan
           id="tspan256"
           y="0"
           x="0">∗</tspan></text>
<text
         id="text258"
         style="font-variant:normal;font-size:13.94760036px;font-family:'Minion Pro';-inkscape-font-specification:MinionPro-Subh-Identity-H;writing-mode:lr-tb;fill:#000000;fill-opacity:1;fill-rule:nonzero;stroke:none"
         transform="matrix(1,0,0,-1,318.312,-303.498)"><tspan
           id="tspan260"
           y="0"
           x="0">p</tspan></text>
<text
         id="text262"
         style="font-variant:normal;font-size:13.94760036px;font-family:'XITS Math';-inkscape-font-specification:XITSMath-Identity-H;writing-mode:lr-tb;fill:#000000;fill-opacity:1;fill-rule:nonzero;stroke:none"
         transform="matrix(1,0,0,-1,325.411,-303.498)"><tspan
           id="tspan264"
           y="0"
           x="0">&lt;</tspan></text>
<text
         id="text266"
         style="font-variant:normal;font-size:13.94760036px;font-family:'Minion Pro';-inkscape-font-specification:MinionPro-Subh-Identity-H;writing-mode:lr-tb;fill:#000000;fill-opacity:1;fill-rule:nonzero;stroke:none"
         transform="matrix(1,0,0,-1,334.965,-303.498)"><tspan
           id="tspan268"
           y="0"
           x="0 6.5414243 9.4983158 16.03974">0.1;</tspan></text>
<text
         id="text270"
         style="font-variant:normal;font-size:10.42039967px;font-family:'XITS Math';-inkscape-font-specification:XITSMath-Identity-H;writing-mode:lr-tb;fill:#000000;fill-opacity:1;fill-rule:nonzero;stroke:none"
         transform="matrix(1,0,0,-1,356.793,-297.919)"><tspan
           id="tspan272"
           y="0"
           x="0 5.4498692">∗∗</tspan></text>
<text
         id="text274"
         style="font-variant:normal;font-size:13.94760036px;font-family:'Minion Pro';-inkscape-font-specification:MinionPro-Subh-Identity-H;writing-mode:lr-tb;fill:#000000;fill-opacity:1;fill-rule:nonzero;stroke:none"
         transform="matrix(1,0,0,-1,368.191,-303.498)"><tspan
           id="tspan276"
           y="0"
           x="0">p</tspan></text>
<text
         id="text278"
         style="font-variant:normal;font-size:13.94760036px;font-family:'XITS Math';-inkscape-font-specification:XITSMath-Identity-H;writing-mode:lr-tb;fill:#000000;fill-opacity:1;fill-rule:nonzero;stroke:none"
         transform="matrix(1,0,0,-1,375.291,-303.498)"><tspan
           id="tspan280"
           y="0"
           x="0">&lt;</tspan></text>
<text
         id="text282"
         style="font-variant:normal;font-size:13.94760036px;font-family:'Minion Pro';-inkscape-font-specification:MinionPro-Subh-Identity-H;writing-mode:lr-tb;fill:#000000;fill-opacity:1;fill-rule:nonzero;stroke:none"
         transform="matrix(1,0,0,-1,384.845,-303.498)"><tspan
           id="tspan284"
           y="0"
           x="0 6.5414243 9.4983158 16.03974 22.581165">0.05;</tspan></text>
<text
         id="text286"
         style="font-variant:normal;font-size:10.42039967px;font-family:'XITS Math';-inkscape-font-specification:XITSMath-Identity-H;writing-mode:lr-tb;fill:#000000;fill-opacity:1;fill-rule:nonzero;stroke:none"
         transform="matrix(1,0,0,-1,413.214,-297.919)"><tspan
           id="tspan288"
           y="0"
           x="0 5.4498692 10.899738">∗∗∗</tspan></text>
<text
         id="text290"
         style="font-variant:normal;font-size:13.94760036px;font-family:'Minion Pro';-inkscape-font-specification:MinionPro-Subh-Identity-H;writing-mode:lr-tb;fill:#000000;fill-opacity:1;fill-rule:nonzero;stroke:none"
         transform="matrix(1,0,0,-1,430.062,-303.498)"><tspan
           id="tspan292"
           y="0"
           x="0">p</tspan></text>
<text
         id="text294"
         style="font-variant:normal;font-size:13.94760036px;font-family:'XITS Math';-inkscape-font-specification:XITSMath-Identity-H;writing-mode:lr-tb;fill:#000000;fill-opacity:1;fill-rule:nonzero;stroke:none"
         transform="matrix(1,0,0,-1,437.161,-303.498)"><tspan
           id="tspan296"
           y="0"
           x="0">&lt;</tspan></text>
<text
         id="text298"
         style="font-variant:normal;font-size:13.94760036px;font-family:'Minion Pro';-inkscape-font-specification:MinionPro-Subh-Identity-H;writing-mode:lr-tb;fill:#000000;fill-opacity:1;fill-rule:nonzero;stroke:none"
         transform="matrix(1,0,0,-1,446.715,-303.498)"><tspan
           id="tspan300"
           y="0"
           x="0 6.5414243 9.4983158 16.03974">0.01</tspan></text>
<text
         id="text302"
         style="font-variant:normal;font-size:13.94760036px;font-family:'Minion Pro';-inkscape-font-specification:MinionPro-Subh-Identity-H;writing-mode:lr-tb;fill:#000000;fill-opacity:1;fill-rule:nonzero;stroke:none"
         transform="matrix(1,0,0,-1,158.729,-315.941)"><tspan
           id="tspan304"
           y="0"
           x="0">1</tspan></text>
</g></g></svg>