<?xml version="1.0" encoding="UTF-8" standalone="no"?>
<svg
   xmlns:dc="http://purl.org/dc/elements/1.1/"
   xmlns:cc="http://creativecommons.org/ns#"
   xmlns:rdf="http://www.w3.org/1999/02/22-rdf-syntax-ns#"
   xmlns:svg="http://www.w3.org/2000/svg"
   xmlns="http://www.w3.org/2000/svg"
   viewBox="0 0 802.5 538.75"
   height="538.75"
   width="802.5"
   xml:space="preserve"
   version="1.1"
   id="svg2"><metadata
     id="metadata8"><rdf:RDF><cc:Work
         rdf:about=""><dc:format>image/svg+xml</dc:format><dc:type
           rdf:resource="http://purl.org/dc/dcmitype/StillImage" /></cc:Work></rdf:RDF></metadata><defs
     id="defs6"><clipPath
       id="clipPath22"
       clipPathUnits="userSpaceOnUse"><path
         id="path24"
         d="M 0,0 642,0 642,431 0,431 0,0 Z" /></clipPath><clipPath
       id="clipPath38"
       clipPathUnits="userSpaceOnUse"><path
         id="path40"
         d="m 46.78,37.28 580.82,0 0,379.32 -580.82,0 0,-379.32 z" /></clipPath></defs><g
     transform="matrix(1.25,0,0,-1.25,0,538.75)"
     id="g10"><g
       id="g12" /><g
       id="g14" /><g
       id="g16" /><g
       id="g18"><g
         clip-path="url(#clipPath22)"
         id="g20"><path
           id="path26"
           style="fill:#ffffff;fill-opacity:1;fill-rule:nonzero;stroke:#ffffff;stroke-width:1.05999994;stroke-linecap:round;stroke-linejoin:round;stroke-miterlimit:10;stroke-dasharray:none;stroke-opacity:1"
           d="M 0,0 642,0 642,431 0,431 0,0 Z" /></g></g><g
       id="g28" /><g
       id="g30" /><g
       id="g32" /><g
       id="g34"><g
         clip-path="url(#clipPath38)"
         id="g36"><path
           id="path42"
           style="fill:#ffffff;fill-opacity:1;fill-rule:nonzero;stroke:none"
           d="m 46.78,37.28 580.82,0 0,379.32 -580.82,0 0,-379.32 z" /><path
           id="path44"
           style="fill:none;stroke:#fafafa;stroke-width:1.05999994;stroke-linecap:butt;stroke-linejoin:round;stroke-miterlimit:10;stroke-dasharray:none;stroke-opacity:1"
           d="m 46.78,107.03 580.82,0" /><path
           id="path46"
           style="fill:none;stroke:#fafafa;stroke-width:1.05999994;stroke-linecap:butt;stroke-linejoin:round;stroke-miterlimit:10;stroke-dasharray:none;stroke-opacity:1"
           d="m 46.78,215.3 580.82,0" /><path
           id="path48"
           style="fill:none;stroke:#fafafa;stroke-width:1.05999994;stroke-linecap:butt;stroke-linejoin:round;stroke-miterlimit:10;stroke-dasharray:none;stroke-opacity:1"
           d="m 46.78,323.57 580.82,0" /><path
           id="path50"
           style="fill:none;stroke:#fafafa;stroke-width:1.05999994;stroke-linecap:butt;stroke-linejoin:round;stroke-miterlimit:10;stroke-dasharray:none;stroke-opacity:1"
           d="m 130.55,37.28 0,379.32" /><path
           id="path52"
           style="fill:none;stroke:#fafafa;stroke-width:1.05999994;stroke-linecap:butt;stroke-linejoin:round;stroke-miterlimit:10;stroke-dasharray:none;stroke-opacity:1"
           d="m 246.23,37.28 0,379.32" /><path
           id="path54"
           style="fill:none;stroke:#fafafa;stroke-width:1.05999994;stroke-linecap:butt;stroke-linejoin:round;stroke-miterlimit:10;stroke-dasharray:none;stroke-opacity:1"
           d="m 362.23,37.28 0,379.32" /><path
           id="path56"
           style="fill:none;stroke:#fafafa;stroke-width:1.05999994;stroke-linecap:butt;stroke-linejoin:round;stroke-miterlimit:10;stroke-dasharray:none;stroke-opacity:1"
           d="m 478.23,37.28 0,379.32" /><path
           id="path58"
           style="fill:none;stroke:#fafafa;stroke-width:1.05999994;stroke-linecap:butt;stroke-linejoin:round;stroke-miterlimit:10;stroke-dasharray:none;stroke-opacity:1"
           d="m 593.91,37.28 0,379.32" /><path
           id="path60"
           style="fill:none;stroke:#e5e5e5;stroke-width:0.43000001;stroke-linecap:butt;stroke-linejoin:round;stroke-miterlimit:10;stroke-dasharray:none;stroke-opacity:1"
           d="m 46.78,52.9 580.82,0" /><path
           id="path62"
           style="fill:none;stroke:#e5e5e5;stroke-width:0.43000001;stroke-linecap:butt;stroke-linejoin:round;stroke-miterlimit:10;stroke-dasharray:none;stroke-opacity:1"
           d="m 46.78,161.17 580.82,0" /><path
           id="path64"
           style="fill:none;stroke:#e5e5e5;stroke-width:0.43000001;stroke-linecap:butt;stroke-linejoin:round;stroke-miterlimit:10;stroke-dasharray:none;stroke-opacity:1"
           d="m 46.78,269.44 580.82,0" /><path
           id="path66"
           style="fill:none;stroke:#e5e5e5;stroke-width:0.43000001;stroke-linecap:butt;stroke-linejoin:round;stroke-miterlimit:10;stroke-dasharray:none;stroke-opacity:1"
           d="m 46.78,377.7 580.82,0" /><path
           id="path68"
           style="fill:none;stroke:#e5e5e5;stroke-width:0.43000001;stroke-linecap:butt;stroke-linejoin:round;stroke-miterlimit:10;stroke-dasharray:none;stroke-opacity:1"
           d="m 73.18,37.28 0,379.32" /><path
           id="path70"
           style="fill:none;stroke:#e5e5e5;stroke-width:0.43000001;stroke-linecap:butt;stroke-linejoin:round;stroke-miterlimit:10;stroke-dasharray:none;stroke-opacity:1"
           d="m 187.91,37.28 0,379.32" /><path
           id="path72"
           style="fill:none;stroke:#e5e5e5;stroke-width:0.43000001;stroke-linecap:butt;stroke-linejoin:round;stroke-miterlimit:10;stroke-dasharray:none;stroke-opacity:1"
           d="m 304.55,37.28 0,379.32" /><path
           id="path74"
           style="fill:none;stroke:#e5e5e5;stroke-width:0.43000001;stroke-linecap:butt;stroke-linejoin:round;stroke-miterlimit:10;stroke-dasharray:none;stroke-opacity:1"
           d="m 419.91,37.28 0,379.32" /><path
           id="path76"
           style="fill:none;stroke:#e5e5e5;stroke-width:0.43000001;stroke-linecap:butt;stroke-linejoin:round;stroke-miterlimit:10;stroke-dasharray:none;stroke-opacity:1"
           d="m 536.54,37.28 0,379.32" /><path
           id="path78"
           style="fill:none;stroke:#000000;stroke-width:1.05999994;stroke-linecap:butt;stroke-linejoin:round;stroke-miterlimit:1;stroke-dasharray:none;stroke-opacity:1"
           d="m 130.23,65.35 0.64,-10.83 0.63,1.63 0.63,27.61 0.64,-25.45 0.63,0 0.64,1.09 0.63,-1.63 0.63,-2.7 0.64,0.54 0.63,1.62 0.63,1.08 0.64,-2.16 0.63,0 0.64,1.08 0.63,-0.54 0.63,-1.62 0.64,0.54 0.63,2.16 0.64,2.17 0.63,-1.63 0.63,0 0.64,-1.08 0.63,-0.54 0.63,4.87 0.64,0 0.63,-0.54 0.64,2.71 0.63,2.7 0.63,-6.49 0.64,-4.33 0.63,3.79 0.64,2.16 0.63,4.33 0.63,-3.79 0.64,-5.41 0.63,0.54 0.64,-1.62 0.63,7.58 0.63,-2.71 0.64,8.12 0.63,-1.08 0.63,1.08 0.64,-2.17 0.63,-6.49 0.64,11.91 0.63,13.53 0.63,3.25 0.64,9.2 0.63,-3.79 0.64,-9.2 0.63,-22.2 0.63,9.21 0.64,12.99 0.63,-7.58 0.63,25.44 0.64,0.54 0.63,-21.65 0.64,-14.61 0.63,11.9 0.63,60.63 0.64,53.6 0.63,-60.09 0.64,134.79 0.63,-119.63 0.63,-49.81 0.64,105.02 0.63,54.14 0.64,102.85 0.63,-55.76 0.63,-61.17 0.64,-10.28 0.63,-48.18 0.63,-58.47 0.64,96.9 0.63,-21.65 0.64,34.64 0.63,10.83 0.63,-55.76 0.64,-103.39" /><path
           id="path80"
           style="fill:none;stroke:#000000;stroke-width:1.05999994;stroke-linecap:butt;stroke-linejoin:round;stroke-miterlimit:1;stroke-dasharray:none;stroke-opacity:1"
           d="m 184.74,116.24 0.64,10.82 0.63,-13.53 0.64,-5.95 0.63,30.31 0.63,-10.28 0.64,-39.52 0.63,-16.78 0.64,43.84 0.63,3.79 0.63,-27.06 0.64,-8.12 0.63,22.19 0.64,-24.9 0.63,-9.74 0.63,15.69 0.64,10.83 0.63,-21.11 0.63,12.99 0.64,0 0.63,-17.32 0.64,-3.79 0.63,6.5 0.63,-1.09 0.64,1.09 0.63,3.24 0.64,3.79 0.63,-16.78 0.63,-0.54 0.64,6.5 0.63,4.87 0.64,-10.29 0.63,16.78 0.63,3.79 0.64,-11.91 0.63,-5.95 0.63,9.2 0.64,31.94 0.63,-15.7 0.64,-14.61 0.63,11.91 0.63,-5.96 0.64,-16.78 0.63,3.25 0.64,20.57 0.63,-3.79 0.63,11.91 0.64,-23.28 0.63,4.87 0.63,-23.27 0.64,14.07 0.63,6.5 0.64,8.12 0.63,-16.24 0.63,9.74 0.64,-10.29 0.63,1.09 0.64,-3.79 0.63,5.95 0.63,-0.54 0.64,16.78 0.63,6.5 0.64,-33.56 0.63,-1.63 0.63,6.5 0.64,12.99 0.63,0 0.63,-3.79 0.64,5.41 0.63,-17.32 0.64,-1.08 0.63,1.62 0.63,10.83 0.64,-4.33 0.63,4.87 0.64,5.96 0.63,-16.24 0.63,-8.12 0.64,11.9 0.63,-2.7 0.63,2.16 0.64,5.96 0.63,-1.63 0.64,-12.45 0.63,-2.7 0.63,5.95 0.64,1.08 0.63,-2.7 0.64,0.54 0.63,2.16 0.63,-4.87 0.64,-4.33 0.63,9.2 0.64,1.09 0.63,-7.04 0.63,4.87 0.64,1.63 0.63,-5.96 0.63,-3.25 0.64,5.42 0.63,1.08 0.64,5.41 0.63,0.54 0.63,2.71 0.64,-12.99 0.63,-4.87 0.64,3.24 0.63,5.42 0.63,4.87 0.64,-4.87 0.63,-2.71 0.63,0.54 0.64,-4.33 0.63,10.29 0.64,5.41 0.63,-6.5 0.63,0 0.64,5.96 0.63,3.79 0.64,-14.08 0.63,10.83 0.63,0.54 0.64,-11.91 0.63,4.87 0.64,9.75 0.63,-12.99 0.63,-4.33 0.64,2.16 0.63,12.99 0.63,0.54 0.64,-3.24 0.63,1.62 0.64,-10.29 0.63,-6.49 0.63,7.04 0.64,1.08 0.63,8.12 0.64,1.08 0.63,-3.25 0.63,-8.12 0.64,-4.87 0.63,18.41 0.63,-7.04 0.64,-3.25 0.63,0.54 0.64,5.96 0.63,-4.87 0.63,-10.29 0.64,11.91 0.63,2.71 0.64,2.7 0.63,-12.99 0.63,7.58 0.64,3.79 0.63,-9.75 0.64,2.71 0.63,1.63 0.63,-1.63 0.64,4.87 0.63,9.21 0.63,-10.29 0.64,-9.74 0.63,2.16 0.64,7.04 0.63,8.66 0.63,-5.41 0.64,-4.33 0.63,7.58 0.64,-14.62 0.63,7.58 0.63,-0.54 0.64,4.33 0.63,-1.63 0.63,0 0.64,-7.03 0.63,-3.25 0.64,2.16 0.63,4.88 0.63,-2.17 0.64,6.5 0.63,5.41 0.64,-14.08 0.63,-5.95 0.63,2.71 0.64,7.58 0.63,11.9 0.64,-9.74 0.63,-2.16 0.63,-2.17 0.64,-4.33 0.63,8.12 0.63,10.83 0.64,-1.09 0.63,-8.12 0.64,4.33 0.63,-10.28 0.63,0.54 0.64,7.58 0.63,-1.63 0.64,4.34 0.63,-2.17 0.63,8.66 0.64,-8.66 0.63,-13.53 0.63,5.95 0.64,7.58 0.63,3.25 0.64,22.19 0.63,-26.52 0.63,-2.71 0.64,-10.83 0.63,10.29 0.64,12.45 0.63,3.79 0.63,-7.04 0.64,5.42 0.63,-21.12 0.64,-1.62 0.63,11.37 0.63,2.7 0.64,-0.54 0.63,1.09 0.63,11.36 0.64,-15.7 0.63,-4.87 0.64,9.21 0.63,6.49 0.63,-1.08 0.64,0 0.63,3.25 0.64,-13.54 0.63,-4.33 0.63,12.99 0.64,10.83 0.63,-0.54 0.64,-4.33 0.63,-2.71 0.63,-1.62 0.64,-21.11 0.63,2.16 0.63,19.49 0.64,1.62 0.63,-1.08 0.64,-1.08 0.63,-4.33 0.63,-18.41 0.64,34.11 0.63,-7.04 0.64,-8.12 0.63,9.74 0.63,11.91 0.64,-31.39 0.63,-10.29 0.63,12.45 0.64,7.04 0.63,1.62 0.64,-6.49 0.63,7.03 0.63,-10.82 0.64,-4.88 0.63,8.12 0.64,7.58 0.63,-2.7 0.63,1.62 0.64,14.08 0.63,-23.82 0.64,-8.12 0.63,25.98 0.63,-1.62 0.64,-4.33 0.63,-2.71 0.63,4.87 0.64,-18.4 0.63,-4.88 0.64,14.08 0.63,3.25 0.63,3.79 0.64,2.16 0.63,0 0.64,-16.24 0.63,-4.33 0.63,12.45 0.64,15.16 0.63,-12.99 0.63,14.61 0.64,20.03 0.63,-33.02 0.64,-14.07 0.63,24.9 0.63,12.45 0.64,14.61 0.63,3.25 0.64,-28.69 0.63,-22.73 0.63,-8.67 0.64,10.83 0.63,8.66 0.64,-7.58 0.63,7.04 0.63,-4.87 0.64,-9.75 0.63,-7.57 0.63,11.36 0.64,4.88 0.63,-2.71 0.64,4.87 0.63,-4.33 0.63,-8.66 0.64,-3.79 0.63,12.45 0.64,2.17 0.63,5.41 0.63,-12.45 0.64,9.74 0.63,-12.45 0.63,-3.79 0.64,14.08 0.63,4.33 0.64,0 0.63,-2.71 0.63,0 0.64,-9.2 0.63,-8.12 0.64,19.49 0.63,-3.25 0.63,-7.04 0.64,5.41 0.63,-2.16 0.64,-6.5 0.63,-4.87 0.63,11.91 0.64,3.25 0.63,5.95 0.63,-9.2 0.64,4.87 0.63,-10.28 0.64,-3.25 0.63,1.08 0.63,5.96 0.64,3.24 0.63,1.63 0.64,1.08 0.63,-11.91 0.63,-1.62 0.64,13.53 0.63,0.54 0.63,3.25 0.64,-7.04 0.63,1.09 0.64,-9.21 0.63,7.04 0.63,2.17 0.64,3.24 0.63,-4.33 0.64,3.79 0.63,2.17 0.63,-6.5 0.64,-9.2 0.63,8.66 0.64,0.54 0.63,-0.54 0.63,3.79 0.64,-1.08 0.63,-9.21 0.63,-5.95 0.64,11.91 0.63,4.87 0.64,-9.74 0.63,7.03 0.63,-0.54 0.64,-3.79 0.63,-7.03 0.64,13.53 0.63,2.71 0.63,-12.45 0.64,-0.55 0.63,8.67 0.63,-9.75 0.64,1.08 0.63,12.46 0.64,2.7 0.63,-7.04 0.63,-3.24 0.64,-1.09 0.63,-1.62 0.64,-2.71 0.63,5.96 0.63,12.45 0.64,-4.87 0.63,-5.42 0.64,7.58 0.63,-13.53 0.63,-1.63 0.64,7.58 0.63,3.79 0.63,-6.49 0.64,2.7 0.63,9.75 0.64,-16.24 0.63,-3.79 0.63,8.12 0.64,3.79 0.63,4.33 0.64,0 0.63,-2.71 0.63,-9.2 0.64,-2.17 0.63,10.29 0.63,2.16 0.64,-2.7 0.63,8.12 0.64,-7.04 0.63,-5.41 0.63,-3.25 0.64,9.74 0.63,9.21 0.64,-10.29 0.63,3.79 0.63,4.87 0.64,-15.7 0.63,3.25 0.64,10.29 0.63,-6.5 0.63,8.66 0.64,-10.83 0.63,-3.78 0.63,-3.79 0.64,-2.71 0.63,11.91 0.64,5.95 0.63,-4.33 0.63,0.54 0.64,2.71 0.63,-10.28 0.64,-8.12 0.63,5.41 0.63,9.2 0.64,5.96 0.63,-3.25 0.64,5.41 0.63,-13.53 0.63,-9.2 0.64,11.36 0.63,2.71 0.63,0.54 0.64,-2.16 0.63,1.08 0.64,-7.58 0.63,-2.71 0.63,16.24 0.64,-7.58 0.63,7.04 0.64,0 0.63,-2.16 0.63,-11.37 0.64,0 0.63,3.25 0.63,10.28 0.64,-3.25 0.63,-4.87 0.64,3.79 0.63,0.54 0.63,-15.7 0.64,18.95 0.63,-4.87 0.64,0 0.63,1.08 0.63,5.41 0.64,-12.99 0.63,0 0.64,2.71 0.63,11.91 0.63,-1.08 0.64,-6.5 0.63,-2.17 0.63,-5.41 0.64,-4.33 0.63,17.86 0.64,-7.03 0.63,0.54 0.63,-7.58 0.64,15.16 0.63,-12.45 0.64,-6.5 0.63,15.7 0.63,2.16 0.64,-4.87 0.63,-7.03 0.63,4.33 0.64,15.15 0.63,-6.49 0.64,12.45 0.63,23.28 0.63,0 0.64,-22.74 0.63,3.79 0.64,-8.66 0.63,-5.42 0.63,19.49 0.64,3.25 0.63,-24.36 0.64,-10.29 0.63,-1.08 0.63,-5.41 0.64,-4.33 0.63,6.49 0.63,-5.95 0.64,9.2 0.63,0.54 0.64,2.71 0.63,-3.79 0.63,-5.41 0.64,16.24 0.63,-2.17 0.64,-5.95 0.63,-3.25 0.63,-7.04 0.64,2.17 0.63,-0.54 0.63,15.15 0.64,-3.79 0.63,8.67 0.64,4.87 0.63,-15.16 0.63,-2.71 0.64,-4.87 0.63,10.83 0.64,4.33 0.63,-5.96 0.63,-4.33 0.64,4.33 0.63,-4.87 0.64,-5.95 0.63,12.45 0.63,3.25 0.64,1.62 0.63,-8.12 0.63,8.12 0.64,-12.99 0.63,-5.42 0.64,13.54 0.63,8.12 0.63,-8.12 0.64,-1.63 0.63,4.33 0.64,-16.78 0.63,-2.16 0.63,5.95 0.64,-3.79 0.63,2.71 0.63,11.91 0.64,-10.83 0.63,-1.08 0.64,-3.25 0.63,3.25 0.63,-1.08 0.64,1.08 0.63,5.95 0.64,15.16 0.63,-15.16 0.63,-2.7 0.64,-2.71 0.63,7.04 0.64,3.25 0.63,1.62 0.63,0 0.64,-7.58 0.63,-4.87 0.63,5.95 0.64,9.21 0.63,-6.5 0.64,-1.08 0.63,5.95 0.63,-7.03 0.64,-5.42 0.63,17.33 0.64,2.7 0.63,-3.79 0.63,-1.62 0.64,-0.54 0.63,-10.83 0.63,-3.25 0.64,15.16 0.63,3.25 0.64,-1.63 0.63,-6.49 0.63,5.41 0.64,-12.45 0.63,-4.33 0.64,17.86 0.63,-0.54 0.63,3.79 0.64,-4.33 0.63,0 0.64,-15.16 0.63,3.25 0.63,3.25 0.64,22.74 0.63,-8.67 0.63,-8.12 0.64,6.5 0.63,13.53 0.64,-3.79 0.63,29.24 0.63,4.33 0.64,15.16 0.63,-19.49 0.64,31.4 0.63,-36.27 0.63,-21.66 0.64,20.57 0.63,15.16 0.63,-8.12 0.64,10.29 0.63,-27.61 0.64,-42.23 0.63,-4.33 0.63,14.08 0.64,23.27 0.63,67.13 0.64,-28.15 0.63,1.08 0.63,-29.77 0.64,-7.58 0.63,24.9 0.64,24.36 0.63,-25.44 0.63,10.29 0.64,-14.62 0.63,-36.81 0.63,-8.66 0.64,13.53 0.63,28.69 0.64,20.03 0.63,28.15 0.63,-24.9 0.64,-28.15 0.63,-23.28 0.64,14.62 0.63,16.78 0.63,13.53 0.64,8.12 0.63,-10.82 0.63,-25.99 0.64,-20.03 0.63,63.88 0.64,60.63 0.63,-13.53 0.63,-10.83 0.64,-9.2 0.63,-40.6 0.64,-15.16 0.63,119.64 0.63,93.11 0.64,65.5 0.63,-231.15 0.64,227.36 0.63,-198.13" /><path
           id="path82"
           style="fill:none;stroke:#7f7f7f;stroke-width:1.05999994;stroke-linecap:round;stroke-linejoin:round;stroke-miterlimit:10;stroke-dasharray:none;stroke-opacity:1"
           d="m 46.78,37.28 580.82,0 0,379.32 -580.82,0 0,-379.32 z" /></g></g><g
       id="g84" /><g
       id="g86" /><g
       id="g88"><text
         id="text90"
         style="font-variant:normal;font-weight:normal;font-size:10px;font-family:Helvetica;-inkscape-font-specification:Helvetica;writing-mode:lr-tb;fill:#000000;fill-opacity:1;fill-rule:nonzero;stroke:none"
         transform="matrix(1,0,0,-1,34.14,49.31)"><tspan
           id="tspan92"
           y="0"
           x="0">0</tspan></text>
<text
         id="text94"
         style="font-variant:normal;font-weight:normal;font-size:10px;font-family:Helvetica;-inkscape-font-specification:Helvetica;writing-mode:lr-tb;fill:#000000;fill-opacity:1;fill-rule:nonzero;stroke:none"
         transform="matrix(1,0,0,-1,23.02,157.58)"><tspan
           id="tspan96"
           y="0"
           x="0 5.5599999 11.12">200</tspan></text>
<text
         id="text98"
         style="font-variant:normal;font-weight:normal;font-size:10px;font-family:Helvetica;-inkscape-font-specification:Helvetica;writing-mode:lr-tb;fill:#000000;fill-opacity:1;fill-rule:nonzero;stroke:none"
         transform="matrix(1,0,0,-1,23.02,265.85)"><tspan
           id="tspan100"
           y="0"
           x="0 5.5599999 11.12">400</tspan></text>
<text
         id="text102"
         style="font-variant:normal;font-weight:normal;font-size:10px;font-family:Helvetica;-inkscape-font-specification:Helvetica;writing-mode:lr-tb;fill:#000000;fill-opacity:1;fill-rule:nonzero;stroke:none"
         transform="matrix(1,0,0,-1,23.02,374.11)"><tspan
           id="tspan104"
           y="0"
           x="0 5.5599999 11.12">600</tspan></text>
</g><g
       id="g106" /><g
       id="g108"><path
         id="path110"
         style="fill:none;stroke:#000000;stroke-width:1.05999994;stroke-linecap:butt;stroke-linejoin:round;stroke-miterlimit:10;stroke-dasharray:none;stroke-opacity:1"
         d="m 42.53,52.9 4.25,0" /><path
         id="path112"
         style="fill:none;stroke:#000000;stroke-width:1.05999994;stroke-linecap:butt;stroke-linejoin:round;stroke-miterlimit:10;stroke-dasharray:none;stroke-opacity:1"
         d="m 42.53,161.17 4.25,0" /><path
         id="path114"
         style="fill:none;stroke:#000000;stroke-width:1.05999994;stroke-linecap:butt;stroke-linejoin:round;stroke-miterlimit:10;stroke-dasharray:none;stroke-opacity:1"
         d="m 42.53,269.44 4.25,0" /><path
         id="path116"
         style="fill:none;stroke:#000000;stroke-width:1.05999994;stroke-linecap:butt;stroke-linejoin:round;stroke-miterlimit:10;stroke-dasharray:none;stroke-opacity:1"
         d="m 42.53,377.7 4.25,0" /></g><g
       id="g118" /><g
       id="g120" /><g
       id="g122" /><g
       id="g124" /><g
       id="g126" /><g
       id="g128"><path
         id="path130"
         style="fill:none;stroke:#000000;stroke-width:1.05999994;stroke-linecap:butt;stroke-linejoin:round;stroke-miterlimit:10;stroke-dasharray:none;stroke-opacity:1"
         d="m 73.18,33.03 0,4.25" /><path
         id="path132"
         style="fill:none;stroke:#000000;stroke-width:1.05999994;stroke-linecap:butt;stroke-linejoin:round;stroke-miterlimit:10;stroke-dasharray:none;stroke-opacity:1"
         d="m 187.91,33.03 0,4.25" /><path
         id="path134"
         style="fill:none;stroke:#000000;stroke-width:1.05999994;stroke-linecap:butt;stroke-linejoin:round;stroke-miterlimit:10;stroke-dasharray:none;stroke-opacity:1"
         d="m 304.55,33.03 0,4.25" /><path
         id="path136"
         style="fill:none;stroke:#000000;stroke-width:1.05999994;stroke-linecap:butt;stroke-linejoin:round;stroke-miterlimit:10;stroke-dasharray:none;stroke-opacity:1"
         d="m 419.91,33.03 0,4.25" /><path
         id="path138"
         style="fill:none;stroke:#000000;stroke-width:1.05999994;stroke-linecap:butt;stroke-linejoin:round;stroke-miterlimit:10;stroke-dasharray:none;stroke-opacity:1"
         d="m 536.54,33.03 0,4.25" /></g><g
       id="g140" /><g
       id="g142"><text
         id="text144"
         style="font-variant:normal;font-weight:normal;font-size:10px;font-family:Helvetica;-inkscape-font-specification:Helvetica;writing-mode:lr-tb;fill:#000000;fill-opacity:1;fill-rule:nonzero;stroke:none"
         transform="matrix(1,0,0,-1,53.58,23.02)"><tspan
           id="tspan146"
           y="0"
           x="0 5.5599999 11.12 16.68 22.24 28.08 33.639999">2011−01</tspan></text>
<text
         id="text148"
         style="font-variant:normal;font-weight:normal;font-size:10px;font-family:Helvetica;-inkscape-font-specification:Helvetica;writing-mode:lr-tb;fill:#000000;fill-opacity:1;fill-rule:nonzero;stroke:none"
         transform="matrix(1,0,0,-1,168.31,23.02)"><tspan
           id="tspan150"
           y="0"
           x="0 5.5599999 11.12 16.68 22.24 28.08 33.639999">2011−07</tspan></text>
<text
         id="text152"
         style="font-variant:normal;font-weight:normal;font-size:10px;font-family:Helvetica;-inkscape-font-specification:Helvetica;writing-mode:lr-tb;fill:#000000;fill-opacity:1;fill-rule:nonzero;stroke:none"
         transform="matrix(1,0,0,-1,284.95,23.02)"><tspan
           id="tspan154"
           y="0"
           x="0 5.5599999 11.12 16.68 22.24 28.08 33.639999">2012−01</tspan></text>
<text
         id="text156"
         style="font-variant:normal;font-weight:normal;font-size:10px;font-family:Helvetica;-inkscape-font-specification:Helvetica;writing-mode:lr-tb;fill:#000000;fill-opacity:1;fill-rule:nonzero;stroke:none"
         transform="matrix(1,0,0,-1,400.31,23.02)"><tspan
           id="tspan158"
           y="0"
           x="0 5.5599999 11.12 16.68 22.24 28.08 33.639999">2012−07</tspan></text>
<text
         id="text160"
         style="font-variant:normal;font-weight:normal;font-size:10px;font-family:Helvetica;-inkscape-font-specification:Helvetica;writing-mode:lr-tb;fill:#000000;fill-opacity:1;fill-rule:nonzero;stroke:none"
         transform="matrix(1,0,0,-1,516.94,23.02)"><tspan
           id="tspan162"
           y="0"
           x="0 5.5599999 11.12 16.68 22.24 28.08 33.639999">2013−01</tspan></text>
</g><g
       id="g164" /><g
       id="g166" /><g
       id="g168" /><g
       id="g170" /><g
       id="g172"><text
         id="text174"
         style="font-variant:normal;font-weight:normal;font-size:12px;font-family:Helvetica;-inkscape-font-specification:Helvetica;writing-mode:lr-tb;fill:#000000;fill-opacity:1;fill-rule:nonzero;stroke:none"
         transform="matrix(1,0,0,-1,324.52,10.8)"><tspan
           id="tspan176"
           y="0"
           x="0 8.6639996 15.336 18.672001">Date</tspan></text>
</g><g
       id="g178" /><g
       id="g180"><text
         id="text182"
         style="font-variant:normal;font-weight:normal;font-size:12px;font-family:Helvetica;-inkscape-font-specification:Helvetica;writing-mode:lr-tb;fill:#000000;fill-opacity:1;fill-rule:nonzero;stroke:none"
         transform="matrix(0,1,1,0,19.42,163.83)"><tspan
           id="tspan184"
           y="0"
           x="0 8.6639996 15.336 25.332001 32.004002 38.675999 42.672001 46.007999 52.68 56.015999 59.352001 68.015999 74.447998 83.112 86.447998 92.339996 96.216003 102.888 109.56 116.232 120.228">Number of New Traders</tspan></text>
</g><g
       id="g186" /><g
       id="g188" /><g
       id="g190" /><g
       id="g192" /></g></svg>